{
  "accessors": [
    {
      "bufferView": 2,
      "componentType": 5126,
      "count": 10729,
      "max": [
        1.0,
        1.0066428184509277,
        1.0
      ],
      "min": [
        -1.0,
        -1.010162353515625,
        -1.0402135848999023
      ],
      "type": "VEC3"
    },
    {
      "bufferView": 2,
      "byteOffset": 128748,
      "componentType": 5126,
      "count": 10729,
      "max": [
        1.0,
        1.0,
        1.0
      ],
      "min": [
        -1.0,
        -1.0,
        -1.0
      ],
      "type": "VEC3"
    },
    {
      "bufferView": 1,
      "componentType": 5126,
      "count": 10729,
      "max": [
        0.875,
        1.0
      ],
      "min": [
        0.125,
        0.0
      ],
      "type": "VEC2"
    },
    {
      "bufferView": 0,
      "componentType": 5125,
      "count": 18876,
      "type": "SCALAR"
    },
    {
      "bufferView": 2,
      "byteOffset": 257496,
      "componentType": 5126,
      "count": 24,
      "max": [
        1.0,
        1.0,
        1.0
      ],
      "min": [
        -1.0,
        -1.0,
        -1.0
      ],
      "type": "VEC3"
    },
    {
      "bufferView": 2,
      "byteOffset": 257784,
      "componentType": 5126,
      "count": 24,
      "max": [
        1.0,
        1.0,
        1.0
      ],
      "min": [
        -1.0,
        -1.0,
        -1.0
      ],
      "type": "VEC3"
    },
    {
      "bufferView": 1,
      "byteOffset": 85832,
      "componentType": 5126,
      "count": 24,
      "max": [
        0.6070572137832642,
        0.575061023235321
      ],
      "min": [
        0.3929428160190582,
        0.4249390959739685
      ],
      "type": "VEC2"
    },
    {
      "bufferView": 0,
      "byteOffset": 75504,
      "componentType": 5125,
      "count": 36,
      "type": "SCALAR"
    },
    {
      "bufferView": 2,
      "byteOffset": 258072,
      "componentType": 5126,
      "count": 203,
      "max": [
        4.734375953674316,
        1.0000001192092896,
        1.2109383344650269
      ],
      "min": [
        -1.0,
        -1.0000020265579224,
        -1.0
      ],
      "type": "VEC3"
    },
    {
      "bufferView": 2,
      "byteOffset": 260508,
      "componentType": 5126,
      "count": 203,
      "max": [
        1.0,
        1.0,
        1.0
      ],
      "min": [
        -1.0,
        -1.0,
        -1.0
      ],
      "type": "VEC3"
    },
    {
      "bufferView": 1,
      "byteOffset": 86024,
      "componentType": 5126,
      "count": 203,
      "max": [
        0.875,
        1.0
      ],
      "min": [
        0.0,
        0.0
      ],
      "type": "VEC2"
    },
    {
      "bufferView": 0,
      "byteOffset": 75648,
      "componentType": 5125,
      "count": 405,
      "type": "SCALAR"
    },
    {
      "bufferView": 2,
      "byteOffset": 262944,
      "componentType": 5126,
      "count": 199,
      "max": [
        4.734375476837158,
        1.0000038146972656,
        1.2109382152557373
      ],
      "min": [
        -1.0,
        -0.9999980926513672,
        -0.9999999403953552
      ],
      "type": "VEC3"
    },
    {
      "bufferView": 2,
      "byteOffset": 265332,
      "componentType": 5126,
      "count": 199,
      "max": [
        1.0,
        1.0,
        1.0
      ],
      "min": [
        -1.0,
        -1.0,
        -1.0
      ],
      "type": "VEC3"
    },
    {
      "bufferView": 1,
      "byteOffset": 87648,
      "componentType": 5126,
      "count": 199,
      "max": [
        0.875,
        1.0
      ],
      "min": [
        0.0,
        0.0
      ],
      "type": "VEC2"
    },
    {
      "bufferView": 0,
      "byteOffset": 77268,
      "componentType": 5125,
      "count": 432,
      "type": "SCALAR"
    },
    {
      "bufferView": 2,
      "byteOffset": 267720,
      "componentType": 5126,
      "count": 96,
      "max": [
        1.0,
        1.0,
        1.0
      ],
      "min": [
        -1.0,
        -61.0,
        -1.0
      ],
      "type": "VEC3"
    },
    {
      "bufferView": 2,
      "byteOffset": 268872,
      "componentType": 5126,
      "count": 96,
      "max": [
        1.0,
        1.0,
        1.0
      ],
      "min": [
        -1.0,
        -1.0,
        -1.0
      ],
      "type": "VEC3"
    },
    {
      "bufferView": 1,
      "byteOffset": 89240,
      "componentType": 5126,
      "count": 96,
      "max": [
        0.875,
        1.0
      ],
      "min": [
        0.125,
        0.0
      ],
      "type": "VEC2"
    },
    {
      "bufferView": 0,
      "byteOffset": 78996,
      "componentType": 5125,
      "count": 144,
      "type": "SCALAR"
    },
    {
      "bufferView": 2,
      "byteOffset": 270024,
      "componentType": 5126,
      "count": 3360,
      "max": [
        25.16799545288086,
        155.9938201904297,
        0.9999990463256836
      ],
      "min": [
        -1.0000017881393433,
        -159.89219665527344,
        -9.055999755859375
      ],
      "type": "VEC3"
    },
    {
      "bufferView": 2,
      "byteOffset": 310344,
      "componentType": 5126,
      "count": 3360,
      "max": [
        1.0,
        1.0,
        1.0
      ],
      "min": [
        -1.0,
        -1.0,
        -1.0
      ],
      "type": "VEC3"
    },
    {
      "bufferView": 1,
      "byteOffset": 90008,
      "componentType": 5126,
      "count": 3360,
      "max": [
        0.875,
        1.0
      ],
      "min": [
        0.125,
        0.0
      ],
      "type": "VEC2"
    },
    {
      "bufferView": 0,
      "byteOffset": 79572,
      "componentType": 5125,
      "count": 5160,
      "type": "SCALAR"
    },
    {
      "bufferView": 2,
      "byteOffset": 350664,
      "componentType": 5126,
      "count": 6518,
      "max": [
        25.167997360229492,
        74.45606231689453,
        0.9999980926513672
      ],
      "min": [
        -27.19417381286621,
        -74.45606231689453,
        -9.055999755859375
      ],
      "type": "VEC3"
    },
    {
      "bufferView": 2,
      "byteOffset": 428880,
      "componentType": 5126,
      "count": 6518,
      "max": [
        1.0,
        1.0,
        1.0
      ],
      "min": [
        -1.0,
        -1.0,
        -1.0
      ],
      "type": "VEC3"
    },
    {
      "bufferView": 1,
      "byteOffset": 116888,
      "componentType": 5126,
      "count": 6518,
      "max": [
        0.875,
        1.0
      ],
      "min": [
        0.125,
        0.0
      ],
      "type": "VEC2"
    },
    {
      "bufferView": 0,
      "byteOffset": 100212,
      "componentType": 5125,
      "count": 10080,
      "type": "SCALAR"
    }
  ],
  "asset": {
    "extras": {
      "author": "Kroko.blend (https://sketchfab.com/jaromir.ternavskiy)",
      "license": "CC-BY-4.0 (http://creativecommons.org/licenses/by/4.0/)",
      "source": "https://sketchfab.com/3d-models/giant-swimming-pool-2dc3c7053131409a998aea9671630dd9",
      "title": "Giant Swimming Pool"
    },
    "generator": "Sketchfab-15.30.0",
    "version": "2.0"
  },
  "bufferViews": [
    {
      "buffer": 0,
      "byteLength": 140532,
      "name": "floatBufferViews",
      "target": 34963
    },
    {
      "buffer": 0,
      "byteLength": 169032,
      "byteOffset": 140532,
      "byteStride": 8,
      "name": "floatBufferViews",
      "target": 34962
    },
    {
      "buffer": 0,
      "byteLength": 507096,
      "byteOffset": 309564,
      "byteStride": 12,
      "name": "floatBufferViews",
      "target": 34962
    }
  ],
  "buffers": [
    {
      "byteLength": 816660,
      "uri": "scene.bin"
    }
  ],
  "images": [
    {
      "uri": "textures/Material.002_baseColor.jpeg"
    },
    {
      "uri": "textures/Material.001_baseColor.png"
    },
    {
      "uri": "textures/Material.003_baseColor.jpeg"
    },
    {
      "uri": "textures/Material_baseColor.jpeg"
    }
  ],
  "materials": [
    {
      "doubleSided": true,
      "name": "Material.002",
      "pbrMetallicRoughness": {
        "baseColorTexture": {
          "index": 0
        },
        "metallicFactor": 0.6628591629993539,
        "roughnessFactor": 0.855385291629024
      }
    },
    {
      "alphaMode": "BLEND",
      "doubleSided": true,
      "name": "Material.001",
      "pbrMetallicRoughness": {
        "baseColorFactor": [
          1.0,
          1.0,
          1.0,
          0.7238117297119381
        ],
        "baseColorTexture": {
          "index": 1
        },
        "metallicFactor": 0.0,
        "roughnessFactor": 0.8211145618000169
      }
    },
    {
      "doubleSided": true,
      "name": "Material.003",
      "pbrMetallicRoughness": {
        "baseColorTexture": {
          "index": 2
        },
        "metallicFactor": 0.0,
        "roughnessFactor": 0.8183193129945433
      }
    },
    {
      "doubleSided": true,
      "name": "Material",
      "pbrMetallicRoughness": {
        "baseColorTexture": {
          "index": 3
        },
        "metallicFactor": 0.0,
        "roughnessFactor": 0.8935171872985931
      }
    }
  ],
  "meshes": [
    {
      "name": "Cube_Material.002_0",
      "primitives": [
        {
          "attributes": {
            "NORMAL": 1,
            "POSITION": 0,
            "TEXCOORD_0": 2
          },
          "indices": 3,
          "material": 0,
          "mode": 4
        }
      ]
    },
    {
      "name": "Cube.001_Material.001_0",
      "primitives": [
        {
          "attributes": {
            "NORMAL": 5,
            "POSITION": 4,
            "TEXCOORD_0": 6
          },
          "indices": 7,
          "material": 1,
          "mode": 4
        }
      ]
    },
    {
      "name": "Cube.002_Material.003_0",
      "primitives": [
        {
          "attributes": {
            "NORMAL": 9,
            "POSITION": 8,
            "TEXCOORD_0": 10
          },
          "indices": 11,
          "material": 2,
          "mode": 4
        }
      ]
    },
    {
      "name": "Cube.003_Material.003_0",
      "primitives": [
        {
          "attributes": {
            "NORMAL": 13,
            "POSITION": 12,
            "TEXCOORD_0": 14
          },
          "indices": 15,
          "material": 2,
          "mode": 4
        }
      ]
    },
    {
      "name": "Cube.004_Material.003_0",
      "primitives": [
        {
          "attributes": {
            "NORMAL": 17,
            "POSITION": 16,
            "TEXCOORD_0": 18
          },
          "indices": 19,
          "material": 2,
          "mode": 4
        }
      ]
    },
    {
      "name": "Cube.005_Material_0",
      "primitives": [
        {
          "attributes": {
            "NORMAL": 21,
            "POSITION": 20,
            "TEXCOORD_0": 22
          },
          "indices": 23,
          "material": 3,
          "mode": 4
        }
      ]
    },
    {
      "name": "Cube.006_Material_0",
      "primitives": [
        {
          "attributes": {
            "NORMAL": 25,
            "POSITION": 24,
            "TEXCOORD_0": 26
          },
          "indices": 27,
          "material": 3,
          "mode": 4
        }
      ]
    }
  ],
  "nodes": [
    {
      "children": [
        1
      ],
      "matrix": [
        1.0,
        0.0,
        0.0,
        0.0,
        0.0,
        2.220446049250313e-16,
        -1.0,
        0.0,
        0.0,
        1.0,
        2.220446049250313e-16,
        0.0,
        0.0,
        0.0,
        0.0,
        1.0
      ],
      "name": "Sketchfab_model"
    },
    {
      "children": [
        2
      ],
      "matrix": [
        0.009999999776482582,
        0.0,
        0.0,
        0.0,
        0.0,
        0.0,
        0.009999999776482582,
        0.0,
        0.0,
        -0.009999999776482582,
        0.0,
        0.0,
        0.0,
        0.0,
        0.0,
        1.0
      ],
      "name": "8a3c2b9811fe4973b8092dd545a212b5.fbx"
    },
    {
      "children": [
        3,
        5,
        7,
        9,
        11,
        13,
        15,
        17,
        20
      ],
      "name": "RootNode"
    },
    {
      "children": [
        4
      ],
      "matrix": [
        5252.47705078125,
        0.0,
        0.0,
        0.0,
        0.0,
        -0.001722720240946932,
        -10573.98144531236,
        0.0,
        0.0,
        1431.5897216796686,
        -0.00023323557006641753,
        0.0,
        5094.5517578125,
        65.80448150634766,
        109.99234008789063,
        1.0
      ],
      "name": "Cube"
    },
    {
      "mesh": 0,
      "name": "Cube_Material.002_0"
    },
    {
      "children": [
        6
      ],
      "matrix": [
        4944.79052734375,
        0.0,
        0.0,
        0.0,
        0.0,
        -0.0016211632217822463,
        -9950.628906249869,
        0.0,
        0.0,
        1150.8790283202973,
        -0.0001875019931917561,
        0.0,
        5094.5517578125,
        -156.46481323242188,
        67.38821411132813,
        1.0
      ],
      "name": "Cube.001"
    },
    {
      "mesh": 1,
      "name": "Cube.001_Material.001_0"
    },
    {
      "children": [
        8
      ],
      "matrix": [
        -132.59660339355315,
        -6.639703269194413e-13,
        2.002153008706876e-05,
        0.0,
        5.826287394598354e-06,
        2.913143712072027e-06,
        38.58575820922796,
        0.0,
        -2.6353719661140522e-11,
        1606.2180175781202,
        -0.00012126608680307636,
        0.0,
        161.06771850585938,
        -137.5142059326172,
        -1127.5479736328125,
        1.0
      ],
      "name": "Cube.002"
    },
    {
      "mesh": 2,
      "name": "Cube.002_Material.003_0"
    },
    {
      "children": [
        10
      ],
      "matrix": [
        -132.59660339355315,
        -6.639703269194413e-13,
        2.002153008706876e-05,
        0.0,
        5.826287394598354e-06,
        2.913143712072027e-06,
        38.58575820922796,
        0.0,
        -2.6353719661140522e-11,
        1606.2180175781202,
        -0.00012126608680307636,
        0.0,
        161.0678253173828,
        -137.5142059326172,
        89.69974517822266,
        1.0
      ],
      "name": "Cube.003"
    },
    {
      "mesh": 3,
      "name": "Cube.003_Material.003_0"
    },
    {
      "children": [
        12
      ],
      "matrix": [
        -58.162696838378025,
        5.084744638541206e-06,
        8.782323086308804e-06,
        0.0,
        -3.295253503148064e-06,
        -37.69330215454084,
        -1.6476265662864584e-06,
        0.0,
        8.820127801241108e-05,
        -2.5533170511413292e-05,
        584.1306762695241,
        0.0,
        181.1258544921875,
        -1367.714599609375,
        -519.6448364257813,
        1.0
      ],
      "name": "Cube.004"
    },
    {
      "mesh": 4,
      "name": "Cube.004_Material.003_0"
    },
    {
      "children": [
        14
      ],
      "matrix": [
        411.7098693847656,
        0.0,
        0.0,
        0.0,
        0.0,
        -1.1014978981104646e-05,
        -67.60945892333895,
        0.0,
        0.0,
        297.72714233398045,
        -4.8505908302441226e-05,
        0.0,
        181.6997528076172,
        1203.48291015625,
        22.771757125854492,
        1.0
      ],
      "name": "Cube.005"
    },
    {
      "mesh": 5,
      "name": "Cube.005_Material_0"
    },
    {
      "children": [
        16
      ],
      "matrix": [
        1.7884476292514997e-05,
        -4.542467611909004e-14,
        -409.1491088867184,
        0.0,
        -72.48803710937486,
        -3.168552864995979e-06,
        -3.1685528690198736e-06,
        0.0,
        -1.3014067267458503e-05,
        297.7271423339841,
        -5.949783512550731e-13,
        0.0,
        5126.59130859375,
        1203.48291015625,
        -276.6015930175781,
        1.0
      ],
      "name": "Cube.006"
    },
    {
      "mesh": 6,
      "name": "Cube.006_Material_0"
    },
    {
      "children": [
        18
      ],
      "matrix": [
        107.51820526916028,
        99.83341479723023,
        -2.13837628481058e-13,
        0.0,
        -99.83341479722993,
        107.51820526915996,
        -1.1077083160302386e-05,
        0.0,
        -7.537213845870245e-06,
        8.117399754963197e-06,
        146.72039794921832,
        0.0,
        -3389.218505859375,
        4881.79345703125,
        -841.4201049804688,
        1.0
      ],
      "name": "Spot"
    },
    {
      "children": [
        19
      ],
      "matrix": [
        1.0,
        0.0,
        0.0,
        0.0,
        0.0,
        2.220446049250313e-16,
        1.0,
        0.0,
        0.0,
        -1.0,
        2.220446049250313e-16,
        0.0,
        0.0,
        0.0,
        0.0,
        1.0
      ],
      "name": "Object_18"
    },
    {
      "name": "Object_19"
    },
    {
      "children": [
        21
      ],
      "matrix": [
        -16.11063482895643,
        99.83340557898727,
        106.3043449266612,
        0.0,
        14.959148657577444,
        107.51821382853443,
        -98.70629534603736,
        0.0,
        -145.06393932065137,
        9.671901117028604e-06,
        -21.984737504718844,
        0.0,
        1753.7698974609375,
        6767.880859375,
        -11507.65625,
        1.0
      ],
      "name": "Spot.001"
    },
    {
      "children": [
        22
      ],
      "matrix": [
        1.0,
        0.0,
        0.0,
        0.0,
        0.0,
        2.220446049250313e-16,
        1.0,
        0.0,
        0.0,
        -1.0,
        2.220446049250313e-16,
        0.0,
        0.0,
        0.0,
        0.0,
        1.0
      ],
      "name": "Object_21"
    },
    {
      "name": "Object_22"
    }
  ],
  "samplers": [
    {
      "magFilter": 9729,
      "minFilter": 9987,
      "wrapS": 10497,
      "wrapT": 10497
    }
  ],
  "scene": 0,
  "scenes": [
    {
      "name": "Sketchfab_Scene",
      "nodes": [
        0
      ]
    }
  ],
  "textures": [
    {
      "sampler": 0,
      "source": 0
    },
    {
      "sampler": 0,
      "source": 1
    },
    {
      "sampler": 0,
      "source": 2
    },
    {
      "sampler": 0,
      "source": 3
    }
  ]
}
